<mxfile host="app.diagrams.net" modified="2023-06-09T22:32:08.125Z" agent="Mozilla/5.0 (Windows NT 10.0; Win64; x64) AppleWebKit/537.36 (KHTML, like Gecko) Chrome/114.0.0.0 Safari/537.36" etag="whjy5Gso9DKk9MNAX179" version="21.3.7" type="github">
  <diagram name="Page-1" id="8TgLYTNgXc5h9t4z_1Jd">
    <mxGraphModel dx="1339" dy="918" grid="1" gridSize="10" guides="1" tooltips="1" connect="1" arrows="1" fold="1" page="1" pageScale="1" pageWidth="827" pageHeight="1169" math="0" shadow="0">
      <root>
        <mxCell id="0" />
        <mxCell id="1" parent="0" />
        <mxCell id="q1RqS_0yCnag_YziueYZ-42" value="" style="rounded=0;whiteSpace=wrap;html=1;" vertex="1" parent="1">
          <mxGeometry x="100" y="330" width="440" height="60" as="geometry" />
        </mxCell>
        <mxCell id="q1RqS_0yCnag_YziueYZ-8" style="edgeStyle=orthogonalEdgeStyle;rounded=0;orthogonalLoop=1;jettySize=auto;html=1;exitX=1;exitY=0.5;exitDx=0;exitDy=0;entryX=0;entryY=0.5;entryDx=0;entryDy=0;fontSize=15;" edge="1" parent="1" source="q1RqS_0yCnag_YziueYZ-1" target="q1RqS_0yCnag_YziueYZ-5">
          <mxGeometry relative="1" as="geometry" />
        </mxCell>
        <mxCell id="q1RqS_0yCnag_YziueYZ-12" value="clone" style="edgeLabel;html=1;align=center;verticalAlign=middle;resizable=0;points=[];fontSize=15;" vertex="1" connectable="0" parent="q1RqS_0yCnag_YziueYZ-8">
          <mxGeometry x="-0.3237" y="-5" relative="1" as="geometry">
            <mxPoint x="13" y="-5" as="offset" />
          </mxGeometry>
        </mxCell>
        <mxCell id="q1RqS_0yCnag_YziueYZ-1" value="&lt;font style=&quot;font-size: 15px;&quot;&gt;bash&lt;/font&gt;" style="whiteSpace=wrap;html=1;aspect=fixed;fillColor=#d5e8d4;strokeColor=#82b366;rounded=0;fontSize=15;" vertex="1" parent="1">
          <mxGeometry x="40" y="40" width="80" height="80" as="geometry" />
        </mxCell>
        <mxCell id="q1RqS_0yCnag_YziueYZ-3" value="138.34.x.x" style="rhombus;whiteSpace=wrap;html=1;fillColor=#fff2cc;strokeColor=#d6b656;rounded=0;fontSize=15;" vertex="1" parent="1">
          <mxGeometry x="520" y="200" width="80" height="80" as="geometry" />
        </mxCell>
        <mxCell id="q1RqS_0yCnag_YziueYZ-6" style="rounded=0;orthogonalLoop=1;jettySize=auto;html=1;exitX=0;exitY=1;exitDx=0;exitDy=0;entryX=1;entryY=0;entryDx=0;entryDy=0;fontSize=15;" edge="1" parent="1" source="q1RqS_0yCnag_YziueYZ-5">
          <mxGeometry relative="1" as="geometry">
            <mxPoint x="108.2842712474619" y="211.7157287525381" as="targetPoint" />
          </mxGeometry>
        </mxCell>
        <mxCell id="q1RqS_0yCnag_YziueYZ-13" value="lstat" style="edgeLabel;html=1;align=center;verticalAlign=middle;resizable=0;points=[];fontSize=15;" vertex="1" connectable="0" parent="q1RqS_0yCnag_YziueYZ-6">
          <mxGeometry x="-0.2051" relative="1" as="geometry">
            <mxPoint x="-5" y="4" as="offset" />
          </mxGeometry>
        </mxCell>
        <mxCell id="q1RqS_0yCnag_YziueYZ-5" value="&lt;font style=&quot;font-size: 15px;&quot;&gt;mv&lt;/font&gt;" style="whiteSpace=wrap;html=1;aspect=fixed;fillColor=#d5e8d4;strokeColor=#82b366;rounded=0;fontSize=15;" vertex="1" parent="1">
          <mxGeometry x="200" y="40" width="80" height="80" as="geometry" />
        </mxCell>
        <mxCell id="q1RqS_0yCnag_YziueYZ-16" style="rounded=0;orthogonalLoop=1;jettySize=auto;html=1;exitX=0;exitY=1;exitDx=0;exitDy=0;entryX=1;entryY=0;entryDx=0;entryDy=0;fontSize=15;" edge="1" parent="1" source="q1RqS_0yCnag_YziueYZ-14" target="q1RqS_0yCnag_YziueYZ-15">
          <mxGeometry relative="1" as="geometry" />
        </mxCell>
        <mxCell id="q1RqS_0yCnag_YziueYZ-27" value="clone" style="edgeLabel;html=1;align=center;verticalAlign=middle;resizable=0;points=[];fontSize=15;" vertex="1" connectable="0" parent="q1RqS_0yCnag_YziueYZ-16">
          <mxGeometry x="0.2064" y="2" relative="1" as="geometry">
            <mxPoint x="8" y="-9" as="offset" />
          </mxGeometry>
        </mxCell>
        <mxCell id="q1RqS_0yCnag_YziueYZ-26" style="edgeStyle=orthogonalEdgeStyle;rounded=0;orthogonalLoop=1;jettySize=auto;html=1;exitX=1;exitY=0.5;exitDx=0;exitDy=0;entryX=0;entryY=0.5;entryDx=0;entryDy=0;fontSize=15;" edge="1" parent="1" source="q1RqS_0yCnag_YziueYZ-14" target="q1RqS_0yCnag_YziueYZ-25">
          <mxGeometry relative="1" as="geometry" />
        </mxCell>
        <mxCell id="q1RqS_0yCnag_YziueYZ-28" value="clone" style="edgeLabel;html=1;align=center;verticalAlign=middle;resizable=0;points=[];fontSize=15;" vertex="1" connectable="0" parent="q1RqS_0yCnag_YziueYZ-26">
          <mxGeometry x="0.1942" y="3" relative="1" as="geometry">
            <mxPoint x="-8" y="3" as="offset" />
          </mxGeometry>
        </mxCell>
        <mxCell id="q1RqS_0yCnag_YziueYZ-14" value="&lt;font style=&quot;font-size: 15px;&quot;&gt;bash&lt;/font&gt;" style="whiteSpace=wrap;html=1;aspect=fixed;fillColor=#d5e8d4;strokeColor=#82b366;rounded=0;fontSize=15;" vertex="1" parent="1">
          <mxGeometry x="360" y="40" width="80" height="80" as="geometry" />
        </mxCell>
        <mxCell id="q1RqS_0yCnag_YziueYZ-18" style="rounded=0;orthogonalLoop=1;jettySize=auto;html=1;exitX=0;exitY=0.5;exitDx=0;exitDy=0;entryX=1;entryY=0.5;entryDx=0;entryDy=0;fontSize=15;" edge="1" parent="1" source="q1RqS_0yCnag_YziueYZ-15">
          <mxGeometry relative="1" as="geometry">
            <mxPoint x="120" y="240" as="targetPoint" />
          </mxGeometry>
        </mxCell>
        <mxCell id="q1RqS_0yCnag_YziueYZ-19" value="read" style="edgeLabel;html=1;align=center;verticalAlign=middle;resizable=0;points=[];fontSize=15;" vertex="1" connectable="0" parent="q1RqS_0yCnag_YziueYZ-18">
          <mxGeometry x="-0.3276" y="5" relative="1" as="geometry">
            <mxPoint x="-13" y="-5" as="offset" />
          </mxGeometry>
        </mxCell>
        <mxCell id="q1RqS_0yCnag_YziueYZ-21" style="edgeStyle=orthogonalEdgeStyle;rounded=0;orthogonalLoop=1;jettySize=auto;html=1;exitX=1;exitY=0.5;exitDx=0;exitDy=0;entryX=0;entryY=0.5;entryDx=0;entryDy=0;fontSize=15;" edge="1" parent="1" source="q1RqS_0yCnag_YziueYZ-15" target="q1RqS_0yCnag_YziueYZ-20">
          <mxGeometry relative="1" as="geometry" />
        </mxCell>
        <mxCell id="q1RqS_0yCnag_YziueYZ-24" value="write" style="edgeLabel;html=1;align=center;verticalAlign=middle;resizable=0;points=[];fontSize=15;" vertex="1" connectable="0" parent="q1RqS_0yCnag_YziueYZ-21">
          <mxGeometry x="0.175" y="1" relative="1" as="geometry">
            <mxPoint x="-7" y="1" as="offset" />
          </mxGeometry>
        </mxCell>
        <mxCell id="q1RqS_0yCnag_YziueYZ-15" value="&lt;font style=&quot;font-size: 15px;&quot;&gt;cp&lt;br style=&quot;font-size: 15px;&quot;&gt;&lt;/font&gt;" style="whiteSpace=wrap;html=1;aspect=fixed;fillColor=#d5e8d4;strokeColor=#82b366;rounded=0;fontSize=15;" vertex="1" parent="1">
          <mxGeometry x="200" y="200" width="80" height="80" as="geometry" />
        </mxCell>
        <mxCell id="q1RqS_0yCnag_YziueYZ-20" value="&lt;font style=&quot;font-size: 15px;&quot;&gt;random.h&lt;/font&gt;" style="ellipse;whiteSpace=wrap;html=1;aspect=fixed;fillColor=#dae8fc;strokeColor=#6c8ebf;rounded=0;fontSize=15;" vertex="1" parent="1">
          <mxGeometry x="360" y="200" width="80" height="80" as="geometry" />
        </mxCell>
        <mxCell id="q1RqS_0yCnag_YziueYZ-29" style="rounded=0;orthogonalLoop=1;jettySize=auto;html=1;exitX=0;exitY=1;exitDx=0;exitDy=0;entryX=1;entryY=0;entryDx=0;entryDy=0;fontSize=15;" edge="1" parent="1" source="q1RqS_0yCnag_YziueYZ-25" target="q1RqS_0yCnag_YziueYZ-20">
          <mxGeometry relative="1" as="geometry" />
        </mxCell>
        <mxCell id="q1RqS_0yCnag_YziueYZ-32" value="read" style="edgeLabel;html=1;align=center;verticalAlign=middle;resizable=0;points=[];fontSize=15;" vertex="1" connectable="0" parent="q1RqS_0yCnag_YziueYZ-29">
          <mxGeometry x="0.2833" y="3" relative="1" as="geometry">
            <mxPoint x="17" y="-21" as="offset" />
          </mxGeometry>
        </mxCell>
        <mxCell id="q1RqS_0yCnag_YziueYZ-30" style="edgeStyle=orthogonalEdgeStyle;rounded=0;orthogonalLoop=1;jettySize=auto;html=1;exitX=0.5;exitY=1;exitDx=0;exitDy=0;entryX=0.5;entryY=0;entryDx=0;entryDy=0;fontSize=15;" edge="1" parent="1" source="q1RqS_0yCnag_YziueYZ-25" target="q1RqS_0yCnag_YziueYZ-3">
          <mxGeometry relative="1" as="geometry" />
        </mxCell>
        <mxCell id="q1RqS_0yCnag_YziueYZ-31" value="write" style="edgeLabel;html=1;align=center;verticalAlign=middle;resizable=0;points=[];fontSize=15;" vertex="1" connectable="0" parent="q1RqS_0yCnag_YziueYZ-30">
          <mxGeometry x="-0.5688" y="-5" relative="1" as="geometry">
            <mxPoint x="5" y="22" as="offset" />
          </mxGeometry>
        </mxCell>
        <mxCell id="q1RqS_0yCnag_YziueYZ-25" value="&lt;font style=&quot;font-size: 15px;&quot;&gt;curl&lt;br style=&quot;font-size: 15px;&quot;&gt;&lt;/font&gt;" style="whiteSpace=wrap;html=1;aspect=fixed;fillColor=#d5e8d4;strokeColor=#82b366;rounded=0;fontSize=15;" vertex="1" parent="1">
          <mxGeometry x="520" y="40" width="80" height="80" as="geometry" />
        </mxCell>
        <mxCell id="q1RqS_0yCnag_YziueYZ-33" value="" style="whiteSpace=wrap;html=1;aspect=fixed;fillColor=#d5e8d4;strokeColor=#82b366;rounded=0;fontSize=15;" vertex="1" parent="1">
          <mxGeometry x="110" y="340" width="40" height="40" as="geometry" />
        </mxCell>
        <mxCell id="q1RqS_0yCnag_YziueYZ-35" value="" style="ellipse;whiteSpace=wrap;html=1;aspect=fixed;fillColor=#dae8fc;strokeColor=#6c8ebf;rounded=0;fontSize=15;" vertex="1" parent="1">
          <mxGeometry x="240" y="340" width="40" height="40" as="geometry" />
        </mxCell>
        <mxCell id="q1RqS_0yCnag_YziueYZ-36" value="" style="rhombus;whiteSpace=wrap;html=1;fillColor=#fff2cc;strokeColor=#d6b656;rounded=0;fontSize=15;" vertex="1" parent="1">
          <mxGeometry x="340" y="340" width="40" height="40" as="geometry" />
        </mxCell>
        <mxCell id="q1RqS_0yCnag_YziueYZ-37" value="process" style="text;html=1;align=center;verticalAlign=middle;resizable=0;points=[];autosize=1;strokeColor=none;fillColor=none;" vertex="1" parent="1">
          <mxGeometry x="150" y="345" width="70" height="30" as="geometry" />
        </mxCell>
        <mxCell id="q1RqS_0yCnag_YziueYZ-38" value="file" style="text;html=1;align=center;verticalAlign=middle;resizable=0;points=[];autosize=1;strokeColor=none;fillColor=none;" vertex="1" parent="1">
          <mxGeometry x="280" y="345" width="40" height="30" as="geometry" />
        </mxCell>
        <mxCell id="q1RqS_0yCnag_YziueYZ-39" value="socket" style="text;html=1;align=center;verticalAlign=middle;resizable=0;points=[];autosize=1;strokeColor=none;fillColor=none;" vertex="1" parent="1">
          <mxGeometry x="380" y="345" width="60" height="30" as="geometry" />
        </mxCell>
        <mxCell id="q1RqS_0yCnag_YziueYZ-40" value="" style="endArrow=classic;html=1;rounded=0;" edge="1" parent="1">
          <mxGeometry width="50" height="50" relative="1" as="geometry">
            <mxPoint x="450" y="380" as="sourcePoint" />
            <mxPoint x="480" y="340" as="targetPoint" />
          </mxGeometry>
        </mxCell>
        <mxCell id="q1RqS_0yCnag_YziueYZ-41" value="syscall" style="text;html=1;align=center;verticalAlign=middle;resizable=0;points=[];autosize=1;strokeColor=none;fillColor=none;" vertex="1" parent="1">
          <mxGeometry x="483" y="345" width="60" height="30" as="geometry" />
        </mxCell>
        <mxCell id="q1RqS_0yCnag_YziueYZ-44" value="" style="ellipse;whiteSpace=wrap;html=1;aspect=fixed;fillColor=#dae8fc;strokeColor=#6c8ebf;rounded=0;fontSize=15;" vertex="1" parent="1">
          <mxGeometry x="40" y="200" width="80" height="80" as="geometry" />
        </mxCell>
        <mxCell id="q1RqS_0yCnag_YziueYZ-45" value="pw.txt" style="ellipse;whiteSpace=wrap;html=1;aspect=fixed;fillColor=#f8cecc;strokeColor=#b85450;rounded=0;fontSize=15;" vertex="1" parent="1">
          <mxGeometry x="50" y="210" width="60" height="60" as="geometry" />
        </mxCell>
      </root>
    </mxGraphModel>
  </diagram>
</mxfile>
